<mxfile host="app.diagrams.net" modified="2024-06-08T09:06:21.289Z" agent="Mozilla/5.0 (Windows NT 10.0; Win64; x64) AppleWebKit/537.36 (KHTML, like Gecko) Chrome/124.0.0.0 Safari/537.36 Edg/124.0.0.0" etag="WUz9yDwFDaIcRW2Y_5o8" version="24.5.2" type="device">
  <diagram name="Page-1" id="G-r4dek3sP0rpajnWac8">
    <mxGraphModel dx="1854" dy="611" grid="0" gridSize="10" guides="1" tooltips="1" connect="1" arrows="1" fold="1" page="0" pageScale="1" pageWidth="850" pageHeight="1100" math="0" shadow="0">
      <root>
        <mxCell id="0" />
        <mxCell id="1" parent="0" />
        <mxCell id="bcWKLMHoDWWRNiohXbZI-7" style="edgeStyle=orthogonalEdgeStyle;rounded=0;orthogonalLoop=1;jettySize=auto;html=1;exitX=0.5;exitY=1;exitDx=0;exitDy=0;entryX=0.5;entryY=0;entryDx=0;entryDy=0;" edge="1" parent="1" source="bcWKLMHoDWWRNiohXbZI-1" target="bcWKLMHoDWWRNiohXbZI-2">
          <mxGeometry relative="1" as="geometry" />
        </mxCell>
        <mxCell id="bcWKLMHoDWWRNiohXbZI-1" value="Start server" style="ellipse;whiteSpace=wrap;html=1;" vertex="1" parent="1">
          <mxGeometry x="255" y="20" width="90" height="25" as="geometry" />
        </mxCell>
        <mxCell id="bcWKLMHoDWWRNiohXbZI-20" style="edgeStyle=orthogonalEdgeStyle;rounded=0;orthogonalLoop=1;jettySize=auto;html=1;exitX=0.5;exitY=1;exitDx=0;exitDy=0;entryX=0.5;entryY=0;entryDx=0;entryDy=0;" edge="1" parent="1" source="bcWKLMHoDWWRNiohXbZI-2" target="bcWKLMHoDWWRNiohXbZI-19">
          <mxGeometry relative="1" as="geometry" />
        </mxCell>
        <mxCell id="bcWKLMHoDWWRNiohXbZI-2" value="Use custom Middleware &lt;b&gt;LoggerHandler&amp;nbsp;&lt;/b&gt;&lt;span style=&quot;background-color: initial;&quot;&gt;(to record request/response from client)&lt;/span&gt;" style="rounded=1;whiteSpace=wrap;html=1;" vertex="1" parent="1">
          <mxGeometry x="200" y="70" width="200" height="60" as="geometry" />
        </mxCell>
        <mxCell id="bcWKLMHoDWWRNiohXbZI-4" value="ReqLog.txt" style="rounded=0;whiteSpace=wrap;html=1;" vertex="1" parent="1">
          <mxGeometry x="480" y="70" width="120" height="60" as="geometry" />
        </mxCell>
        <mxCell id="bcWKLMHoDWWRNiohXbZI-12" style="edgeStyle=orthogonalEdgeStyle;rounded=0;orthogonalLoop=1;jettySize=auto;html=1;exitX=0.5;exitY=1;exitDx=0;exitDy=0;" edge="1" parent="1" source="bcWKLMHoDWWRNiohXbZI-8" target="bcWKLMHoDWWRNiohXbZI-10">
          <mxGeometry relative="1" as="geometry" />
        </mxCell>
        <mxCell id="bcWKLMHoDWWRNiohXbZI-8" value="Use Built-in Middleware &lt;b&gt;Cors&lt;/b&gt;&lt;div&gt;(to share origin resource to all routes)&lt;/div&gt;" style="rounded=1;whiteSpace=wrap;html=1;" vertex="1" parent="1">
          <mxGeometry x="-298.5" y="80" width="217" height="60" as="geometry" />
        </mxCell>
        <mxCell id="bcWKLMHoDWWRNiohXbZI-14" style="edgeStyle=orthogonalEdgeStyle;rounded=0;orthogonalLoop=1;jettySize=auto;html=1;exitX=0.5;exitY=1;exitDx=0;exitDy=0;entryX=0.5;entryY=0;entryDx=0;entryDy=0;" edge="1" parent="1" source="bcWKLMHoDWWRNiohXbZI-10" target="bcWKLMHoDWWRNiohXbZI-13">
          <mxGeometry relative="1" as="geometry" />
        </mxCell>
        <mxCell id="bcWKLMHoDWWRNiohXbZI-10" value="Use Built-in Middleware &lt;b&gt;Urlencoded&lt;/b&gt;&lt;div&gt;(to parse incomming request to formatted data)&lt;/div&gt;" style="rounded=1;whiteSpace=wrap;html=1;" vertex="1" parent="1">
          <mxGeometry x="-298.5" y="170" width="217" height="60" as="geometry" />
        </mxCell>
        <mxCell id="bcWKLMHoDWWRNiohXbZI-16" style="edgeStyle=orthogonalEdgeStyle;rounded=0;orthogonalLoop=1;jettySize=auto;html=1;exitX=0.5;exitY=1;exitDx=0;exitDy=0;entryX=0.5;entryY=0;entryDx=0;entryDy=0;" edge="1" parent="1" source="bcWKLMHoDWWRNiohXbZI-13" target="bcWKLMHoDWWRNiohXbZI-15">
          <mxGeometry relative="1" as="geometry" />
        </mxCell>
        <mxCell id="bcWKLMHoDWWRNiohXbZI-13" value="Use Built-in Middleware &lt;b&gt;Json&lt;/b&gt;&lt;div&gt;(to convert incomming data to JSON data)&lt;/div&gt;" style="rounded=1;whiteSpace=wrap;html=1;" vertex="1" parent="1">
          <mxGeometry x="-298.5" y="260" width="217" height="60" as="geometry" />
        </mxCell>
        <mxCell id="bcWKLMHoDWWRNiohXbZI-18" style="edgeStyle=orthogonalEdgeStyle;rounded=0;orthogonalLoop=1;jettySize=auto;html=1;exitX=0.5;exitY=1;exitDx=0;exitDy=0;entryX=0.5;entryY=0;entryDx=0;entryDy=0;" edge="1" parent="1" source="bcWKLMHoDWWRNiohXbZI-15" target="bcWKLMHoDWWRNiohXbZI-17">
          <mxGeometry relative="1" as="geometry" />
        </mxCell>
        <mxCell id="bcWKLMHoDWWRNiohXbZI-15" value="Use Built-in Middleware &lt;b&gt;CookieParser&lt;/b&gt;&lt;div&gt;(to convert incomming cookie to req.cookies object)&lt;/div&gt;" style="rounded=1;whiteSpace=wrap;html=1;" vertex="1" parent="1">
          <mxGeometry x="-298.5" y="350" width="217" height="60" as="geometry" />
        </mxCell>
        <mxCell id="bcWKLMHoDWWRNiohXbZI-17" value="Use Built-in Middleware &lt;b&gt;Static&lt;/b&gt;&lt;div&gt;(to serve static file such as css, image,.. for all routes or specific route)&lt;/div&gt;" style="rounded=1;whiteSpace=wrap;html=1;" vertex="1" parent="1">
          <mxGeometry x="-298.5" y="440" width="217" height="60" as="geometry" />
        </mxCell>
        <mxCell id="bcWKLMHoDWWRNiohXbZI-27" style="edgeStyle=orthogonalEdgeStyle;rounded=0;orthogonalLoop=1;jettySize=auto;html=1;exitX=0.5;exitY=1;exitDx=0;exitDy=0;" edge="1" parent="1" source="bcWKLMHoDWWRNiohXbZI-19" target="bcWKLMHoDWWRNiohXbZI-26">
          <mxGeometry relative="1" as="geometry" />
        </mxCell>
        <mxCell id="bcWKLMHoDWWRNiohXbZI-19" value="Use Built-in Middleware such as &lt;b&gt;Cors&lt;/b&gt;, &lt;b&gt;Urlencoded&lt;/b&gt;, &lt;b&gt;Json&lt;/b&gt;, &lt;b&gt;CookieParser&lt;/b&gt;, &lt;b&gt;Static&lt;/b&gt;" style="rounded=1;whiteSpace=wrap;html=1;" vertex="1" parent="1">
          <mxGeometry x="200" y="145" width="200" height="60" as="geometry" />
        </mxCell>
        <mxCell id="bcWKLMHoDWWRNiohXbZI-21" value="" style="rounded=0;whiteSpace=wrap;html=1;fillColor=none;strokeColor=default;strokeWidth=4;" vertex="1" parent="1">
          <mxGeometry x="-370" y="40" width="360" height="490" as="geometry" />
        </mxCell>
        <mxCell id="bcWKLMHoDWWRNiohXbZI-22" value="&lt;b&gt;Built-in Middleware in Express JS&lt;/b&gt;" style="text;html=1;align=center;verticalAlign=middle;whiteSpace=wrap;rounded=0;" vertex="1" parent="1">
          <mxGeometry x="-301.5" y="50" width="220" height="30" as="geometry" />
        </mxCell>
        <mxCell id="bcWKLMHoDWWRNiohXbZI-23" value="ErrorLog.txt" style="rounded=0;whiteSpace=wrap;html=1;" vertex="1" parent="1">
          <mxGeometry x="480" y="560" width="120" height="60" as="geometry" />
        </mxCell>
        <mxCell id="bcWKLMHoDWWRNiohXbZI-24" value="" style="endArrow=classic;html=1;rounded=0;entryX=0;entryY=0.5;entryDx=0;entryDy=0;exitX=1;exitY=0.5;exitDx=0;exitDy=0;" edge="1" parent="1" source="bcWKLMHoDWWRNiohXbZI-2" target="bcWKLMHoDWWRNiohXbZI-4">
          <mxGeometry width="50" height="50" relative="1" as="geometry">
            <mxPoint x="400" y="120" as="sourcePoint" />
            <mxPoint x="450" y="70" as="targetPoint" />
          </mxGeometry>
        </mxCell>
        <mxCell id="bcWKLMHoDWWRNiohXbZI-26" value="Use common &lt;b&gt;Routes &lt;/b&gt;such as &lt;b&gt;Home&lt;/b&gt;, &lt;b&gt;Register&lt;/b&gt;, &lt;b&gt;Auth&lt;/b&gt;, &lt;b&gt;Refresh&lt;/b&gt;, &lt;b&gt;Logout&lt;/b&gt;" style="rounded=1;whiteSpace=wrap;html=1;" vertex="1" parent="1">
          <mxGeometry x="200" y="220" width="200" height="60" as="geometry" />
        </mxCell>
        <mxCell id="bcWKLMHoDWWRNiohXbZI-28" value="Redirect to HTML page and response HTTP Status" style="rounded=1;whiteSpace=wrap;html=1;" vertex="1" parent="1">
          <mxGeometry x="80" y="300" width="200" height="60" as="geometry" />
        </mxCell>
        <mxCell id="bcWKLMHoDWWRNiohXbZI-29" value="Redirect to Controllers" style="rounded=1;whiteSpace=wrap;html=1;" vertex="1" parent="1">
          <mxGeometry x="320" y="300" width="200" height="60" as="geometry" />
        </mxCell>
        <mxCell id="bcWKLMHoDWWRNiohXbZI-31" value="" style="endArrow=classic;html=1;rounded=0;exitX=0.5;exitY=1;exitDx=0;exitDy=0;entryX=0.5;entryY=0;entryDx=0;entryDy=0;" edge="1" parent="1" source="bcWKLMHoDWWRNiohXbZI-26" target="bcWKLMHoDWWRNiohXbZI-28">
          <mxGeometry width="50" height="50" relative="1" as="geometry">
            <mxPoint x="250" y="280" as="sourcePoint" />
            <mxPoint x="300" y="230" as="targetPoint" />
          </mxGeometry>
        </mxCell>
        <mxCell id="bcWKLMHoDWWRNiohXbZI-32" value="" style="endArrow=classic;html=1;rounded=0;exitX=0.5;exitY=1;exitDx=0;exitDy=0;entryX=0.5;entryY=0;entryDx=0;entryDy=0;" edge="1" parent="1" source="bcWKLMHoDWWRNiohXbZI-26" target="bcWKLMHoDWWRNiohXbZI-29">
          <mxGeometry width="50" height="50" relative="1" as="geometry">
            <mxPoint x="250" y="280" as="sourcePoint" />
            <mxPoint x="300" y="230" as="targetPoint" />
          </mxGeometry>
        </mxCell>
        <mxCell id="bcWKLMHoDWWRNiohXbZI-33" value="Authentication Controller" style="rounded=1;whiteSpace=wrap;html=1;" vertex="1" parent="1">
          <mxGeometry x="600" y="240" width="190" height="30" as="geometry" />
        </mxCell>
        <mxCell id="bcWKLMHoDWWRNiohXbZI-34" value="Logout Controller" style="rounded=1;whiteSpace=wrap;html=1;" vertex="1" parent="1">
          <mxGeometry x="600" y="290" width="190" height="30" as="geometry" />
        </mxCell>
        <mxCell id="bcWKLMHoDWWRNiohXbZI-35" value="Refresh Token Controller" style="rounded=1;whiteSpace=wrap;html=1;" vertex="1" parent="1">
          <mxGeometry x="600" y="340" width="190" height="30" as="geometry" />
        </mxCell>
        <mxCell id="bcWKLMHoDWWRNiohXbZI-36" value="Register Controller" style="rounded=1;whiteSpace=wrap;html=1;" vertex="1" parent="1">
          <mxGeometry x="600" y="390" width="190" height="30" as="geometry" />
        </mxCell>
        <mxCell id="bcWKLMHoDWWRNiohXbZI-41" value="Database" style="rounded=0;whiteSpace=wrap;html=1;" vertex="1" parent="1">
          <mxGeometry x="870" y="280" width="120" height="100" as="geometry" />
        </mxCell>
        <mxCell id="bcWKLMHoDWWRNiohXbZI-42" value="" style="endArrow=classic;startArrow=classic;html=1;rounded=0;exitX=1;exitY=0.5;exitDx=0;exitDy=0;entryX=0;entryY=0.25;entryDx=0;entryDy=0;" edge="1" parent="1" source="bcWKLMHoDWWRNiohXbZI-33" target="bcWKLMHoDWWRNiohXbZI-41">
          <mxGeometry width="50" height="50" relative="1" as="geometry">
            <mxPoint x="550" y="220" as="sourcePoint" />
            <mxPoint x="870" y="240" as="targetPoint" />
          </mxGeometry>
        </mxCell>
        <mxCell id="bcWKLMHoDWWRNiohXbZI-43" value="" style="endArrow=classic;startArrow=classic;html=1;rounded=0;exitX=1;exitY=0.5;exitDx=0;exitDy=0;entryX=0;entryY=0.5;entryDx=0;entryDy=0;" edge="1" parent="1" source="bcWKLMHoDWWRNiohXbZI-34" target="bcWKLMHoDWWRNiohXbZI-41">
          <mxGeometry width="50" height="50" relative="1" as="geometry">
            <mxPoint x="550" y="220" as="sourcePoint" />
            <mxPoint x="860" y="270" as="targetPoint" />
          </mxGeometry>
        </mxCell>
        <mxCell id="bcWKLMHoDWWRNiohXbZI-44" value="" style="endArrow=classic;startArrow=classic;html=1;rounded=0;entryX=1;entryY=0.5;entryDx=0;entryDy=0;exitX=0;exitY=0.5;exitDx=0;exitDy=0;" edge="1" parent="1" source="bcWKLMHoDWWRNiohXbZI-41" target="bcWKLMHoDWWRNiohXbZI-35">
          <mxGeometry width="50" height="50" relative="1" as="geometry">
            <mxPoint x="860" y="380" as="sourcePoint" />
            <mxPoint x="600" y="170" as="targetPoint" />
          </mxGeometry>
        </mxCell>
        <mxCell id="bcWKLMHoDWWRNiohXbZI-45" value="" style="endArrow=classic;startArrow=classic;html=1;rounded=0;exitX=1;exitY=0.5;exitDx=0;exitDy=0;entryX=0;entryY=0.75;entryDx=0;entryDy=0;" edge="1" parent="1" source="bcWKLMHoDWWRNiohXbZI-36" target="bcWKLMHoDWWRNiohXbZI-41">
          <mxGeometry width="50" height="50" relative="1" as="geometry">
            <mxPoint x="550" y="220" as="sourcePoint" />
            <mxPoint x="870" y="400" as="targetPoint" />
          </mxGeometry>
        </mxCell>
        <mxCell id="bcWKLMHoDWWRNiohXbZI-46" value="" style="endArrow=classic;startArrow=classic;html=1;rounded=0;exitX=1;exitY=0.5;exitDx=0;exitDy=0;entryX=0;entryY=0.5;entryDx=0;entryDy=0;" edge="1" parent="1" source="bcWKLMHoDWWRNiohXbZI-29" target="bcWKLMHoDWWRNiohXbZI-33">
          <mxGeometry width="50" height="50" relative="1" as="geometry">
            <mxPoint x="550" y="280" as="sourcePoint" />
            <mxPoint x="600" y="230" as="targetPoint" />
          </mxGeometry>
        </mxCell>
        <mxCell id="bcWKLMHoDWWRNiohXbZI-47" value="" style="endArrow=classic;startArrow=classic;html=1;rounded=0;exitX=1;exitY=0.5;exitDx=0;exitDy=0;entryX=0;entryY=0.5;entryDx=0;entryDy=0;" edge="1" parent="1" source="bcWKLMHoDWWRNiohXbZI-29" target="bcWKLMHoDWWRNiohXbZI-34">
          <mxGeometry width="50" height="50" relative="1" as="geometry">
            <mxPoint x="550" y="280" as="sourcePoint" />
            <mxPoint x="600" y="230" as="targetPoint" />
          </mxGeometry>
        </mxCell>
        <mxCell id="bcWKLMHoDWWRNiohXbZI-48" value="" style="endArrow=classic;startArrow=classic;html=1;rounded=0;exitX=1;exitY=0.5;exitDx=0;exitDy=0;entryX=0;entryY=0.5;entryDx=0;entryDy=0;" edge="1" parent="1" source="bcWKLMHoDWWRNiohXbZI-29" target="bcWKLMHoDWWRNiohXbZI-35">
          <mxGeometry width="50" height="50" relative="1" as="geometry">
            <mxPoint x="550" y="280" as="sourcePoint" />
            <mxPoint x="600" y="230" as="targetPoint" />
          </mxGeometry>
        </mxCell>
        <mxCell id="bcWKLMHoDWWRNiohXbZI-49" value="" style="endArrow=classic;startArrow=classic;html=1;rounded=0;exitX=1;exitY=0.5;exitDx=0;exitDy=0;entryX=0;entryY=0.5;entryDx=0;entryDy=0;" edge="1" parent="1" source="bcWKLMHoDWWRNiohXbZI-29" target="bcWKLMHoDWWRNiohXbZI-36">
          <mxGeometry width="50" height="50" relative="1" as="geometry">
            <mxPoint x="550" y="280" as="sourcePoint" />
            <mxPoint x="600" y="230" as="targetPoint" />
          </mxGeometry>
        </mxCell>
        <mxCell id="bcWKLMHoDWWRNiohXbZI-50" value="Use custom Middleware &lt;b&gt;ErrorHandler&amp;nbsp;&lt;/b&gt;&lt;span style=&quot;background-color: initial;&quot;&gt;(to record error in request/response from client)&lt;/span&gt;" style="rounded=1;whiteSpace=wrap;html=1;" vertex="1" parent="1">
          <mxGeometry x="200" y="560" width="200" height="60" as="geometry" />
        </mxCell>
        <mxCell id="bcWKLMHoDWWRNiohXbZI-54" value="" style="endArrow=classic;html=1;rounded=0;exitX=1;exitY=0.5;exitDx=0;exitDy=0;entryX=0;entryY=0.5;entryDx=0;entryDy=0;" edge="1" parent="1" source="bcWKLMHoDWWRNiohXbZI-50" target="bcWKLMHoDWWRNiohXbZI-23">
          <mxGeometry width="50" height="50" relative="1" as="geometry">
            <mxPoint x="490" y="500" as="sourcePoint" />
            <mxPoint x="480" y="690" as="targetPoint" />
          </mxGeometry>
        </mxCell>
        <mxCell id="bcWKLMHoDWWRNiohXbZI-56" value="" style="endArrow=none;dashed=1;html=1;dashPattern=1 3;strokeWidth=2;rounded=0;entryX=0;entryY=0.5;entryDx=0;entryDy=0;exitX=1;exitY=0.5;exitDx=0;exitDy=0;" edge="1" parent="1" source="bcWKLMHoDWWRNiohXbZI-21" target="bcWKLMHoDWWRNiohXbZI-19">
          <mxGeometry width="50" height="50" relative="1" as="geometry">
            <mxPoint x="-90" y="280" as="sourcePoint" />
            <mxPoint x="-40" y="230" as="targetPoint" />
          </mxGeometry>
        </mxCell>
        <mxCell id="bcWKLMHoDWWRNiohXbZI-62" style="edgeStyle=orthogonalEdgeStyle;rounded=0;orthogonalLoop=1;jettySize=auto;html=1;exitX=0.5;exitY=1;exitDx=0;exitDy=0;entryX=0.5;entryY=0;entryDx=0;entryDy=0;" edge="1" parent="1" source="bcWKLMHoDWWRNiohXbZI-57" target="bcWKLMHoDWWRNiohXbZI-60">
          <mxGeometry relative="1" as="geometry" />
        </mxCell>
        <mxCell id="bcWKLMHoDWWRNiohXbZI-57" value="Use specific &lt;b&gt;Middleware &lt;/b&gt;as &lt;b&gt;JWT (Json Web Token)&lt;/b&gt; to consider authorization of client with server" style="rounded=1;whiteSpace=wrap;html=1;" vertex="1" parent="1">
          <mxGeometry x="200" y="407.5" width="200" height="55" as="geometry" />
        </mxCell>
        <mxCell id="bcWKLMHoDWWRNiohXbZI-75" style="edgeStyle=orthogonalEdgeStyle;rounded=0;orthogonalLoop=1;jettySize=auto;html=1;exitX=0.5;exitY=1;exitDx=0;exitDy=0;entryX=0.5;entryY=0;entryDx=0;entryDy=0;" edge="1" parent="1" source="bcWKLMHoDWWRNiohXbZI-60" target="bcWKLMHoDWWRNiohXbZI-50">
          <mxGeometry relative="1" as="geometry" />
        </mxCell>
        <mxCell id="bcWKLMHoDWWRNiohXbZI-60" value="Use specific &lt;b&gt;Routes&amp;nbsp;&lt;/b&gt;as &lt;b&gt;JWT (Json Web Token)&lt;/b&gt; to consider authorization of client with server" style="rounded=1;whiteSpace=wrap;html=1;" vertex="1" parent="1">
          <mxGeometry x="200" y="490" width="200" height="55" as="geometry" />
        </mxCell>
        <mxCell id="bcWKLMHoDWWRNiohXbZI-61" value="Private Controller" style="rounded=1;whiteSpace=wrap;html=1;" vertex="1" parent="1">
          <mxGeometry x="600" y="502.5" width="190" height="30" as="geometry" />
        </mxCell>
        <mxCell id="bcWKLMHoDWWRNiohXbZI-64" value="" style="endArrow=classic;startArrow=classic;html=1;rounded=0;exitX=1;exitY=0.5;exitDx=0;exitDy=0;entryX=0;entryY=0.5;entryDx=0;entryDy=0;" edge="1" parent="1" source="bcWKLMHoDWWRNiohXbZI-60" target="bcWKLMHoDWWRNiohXbZI-61">
          <mxGeometry width="50" height="50" relative="1" as="geometry">
            <mxPoint x="400" y="420" as="sourcePoint" />
            <mxPoint x="450" y="370" as="targetPoint" />
          </mxGeometry>
        </mxCell>
        <mxCell id="bcWKLMHoDWWRNiohXbZI-65" value="" style="endArrow=classic;startArrow=classic;html=1;rounded=0;exitX=1;exitY=0.5;exitDx=0;exitDy=0;entryX=0;entryY=0.75;entryDx=0;entryDy=0;" edge="1" parent="1" source="bcWKLMHoDWWRNiohXbZI-61" target="bcWKLMHoDWWRNiohXbZI-41">
          <mxGeometry width="50" height="50" relative="1" as="geometry">
            <mxPoint x="510" y="490" as="sourcePoint" />
            <mxPoint x="900" y="530" as="targetPoint" />
          </mxGeometry>
        </mxCell>
        <mxCell id="bcWKLMHoDWWRNiohXbZI-66" value="Allowed" style="text;html=1;align=center;verticalAlign=middle;whiteSpace=wrap;rounded=0;" vertex="1" parent="1">
          <mxGeometry x="300" y="460" width="60" height="30" as="geometry" />
        </mxCell>
        <mxCell id="bcWKLMHoDWWRNiohXbZI-68" value="" style="endArrow=none;html=1;rounded=0;exitX=0.5;exitY=1;exitDx=0;exitDy=0;" edge="1" parent="1" source="bcWKLMHoDWWRNiohXbZI-29">
          <mxGeometry width="50" height="50" relative="1" as="geometry">
            <mxPoint x="300" y="460" as="sourcePoint" />
            <mxPoint x="300" y="380" as="targetPoint" />
          </mxGeometry>
        </mxCell>
        <mxCell id="bcWKLMHoDWWRNiohXbZI-69" value="" style="endArrow=none;html=1;rounded=0;entryX=0.5;entryY=1;entryDx=0;entryDy=0;" edge="1" parent="1" target="bcWKLMHoDWWRNiohXbZI-28">
          <mxGeometry width="50" height="50" relative="1" as="geometry">
            <mxPoint x="300" y="380" as="sourcePoint" />
            <mxPoint x="300" y="430" as="targetPoint" />
          </mxGeometry>
        </mxCell>
        <mxCell id="bcWKLMHoDWWRNiohXbZI-70" value="" style="endArrow=classic;html=1;rounded=0;entryX=0.5;entryY=0;entryDx=0;entryDy=0;" edge="1" parent="1" target="bcWKLMHoDWWRNiohXbZI-57">
          <mxGeometry width="50" height="50" relative="1" as="geometry">
            <mxPoint x="300" y="380" as="sourcePoint" />
            <mxPoint x="360" y="360" as="targetPoint" />
          </mxGeometry>
        </mxCell>
        <mxCell id="bcWKLMHoDWWRNiohXbZI-71" value="Blocked" style="text;html=1;align=center;verticalAlign=middle;whiteSpace=wrap;rounded=0;" vertex="1" parent="1">
          <mxGeometry x="140" y="420" width="60" height="30" as="geometry" />
        </mxCell>
        <mxCell id="bcWKLMHoDWWRNiohXbZI-74" value="" style="endArrow=classic;html=1;rounded=0;exitX=1;exitY=0.25;exitDx=0;exitDy=0;" edge="1" parent="1">
          <mxGeometry width="50" height="50" relative="1" as="geometry">
            <mxPoint x="200" y="427.5" as="sourcePoint" />
            <mxPoint x="300" y="390" as="targetPoint" />
            <Array as="points">
              <mxPoint x="200" y="428" />
              <mxPoint x="180" y="428" />
              <mxPoint x="180" y="390" />
            </Array>
          </mxGeometry>
        </mxCell>
        <mxCell id="bcWKLMHoDWWRNiohXbZI-76" value="" style="endArrow=classic;html=1;rounded=0;exitX=0.5;exitY=1;exitDx=0;exitDy=0;" edge="1" parent="1" source="bcWKLMHoDWWRNiohXbZI-50">
          <mxGeometry width="50" height="50" relative="1" as="geometry">
            <mxPoint x="340" y="650" as="sourcePoint" />
            <mxPoint x="300" y="50" as="targetPoint" />
            <Array as="points">
              <mxPoint x="300" y="640" />
              <mxPoint x="50" y="640" />
              <mxPoint x="50" y="50" />
            </Array>
          </mxGeometry>
        </mxCell>
      </root>
    </mxGraphModel>
  </diagram>
</mxfile>
